<svg xmlns="http://www.w3.org/2000/svg"><defs><style>.f{display:none;color:#96949C}.f:target{display:inline}.f.blue{color:#1D59F9}</style><symbol id="f-18" viewBox="0 0 1000 1300"><rect width="585.77" height="585.77" x="207.12" y="158.83" fill="#e5e7ef" rx="22.97" ry="22.97"></rect><path d="m864.31 551.09 116.34 101.83-111.05 87.71-5.29-189.54zM135.69 551.09 19.35 652.92l111.05 87.71 5.29-189.54z" fill="currentColor"></path><path d="M878.8 539.58V116.77c0-24.22-19.63-43.85-43.85-43.85H165.06c-24.22 0-43.85 19.63-43.85 43.85v422.81L1.38 632.35v599.37c0 37.48 30.49 67.97 67.97 67.97h861.3c37.48 0 67.97-30.49 67.97-67.97V632.35L878.8 539.58Zm83.89 149.97v458.25L666.75 918.67l295.94-229.13Zm-3.79-42.51-80.1 62.02V585.03l80.1 62.02ZM165.06 105.8h669.88c6.04 0 10.96 4.92 10.96 10.96v617.76L637.39 895.95l-94.56-73.21c-25.22-19.53-60.44-19.52-85.66 0l-94.56 73.21L154.1 734.52V116.77c0-6.05 4.92-10.96 10.96-10.96Zm168.2 812.87L37.31 1147.8V689.55l295.94 229.13ZM121.21 709.05l-80.1-62.02 80.1-62.02v124.03Zm809.45 554.69H69.35c-17.66 0-32.03-14.37-32.03-32.03v-38.47l441.86-342.09c12.26-9.5 29.4-9.5 41.66 0l441.85 342.09v38.47c0 17.66-14.37 32.03-32.03 32.03Z" fill="currentColor"></path><path d="M432.81 253.82H300v132.81h132.81V253.82Zm-31.25 101.56h-70.31v-70.31h70.31v70.31Z" fill="currentColor"></path><path d="M350.78 304.6h31.25v31.25h-31.25zM700 253.82H567.19v132.81H700V253.82Zm-31.25 101.56h-70.31v-70.31h70.31v70.31Z" fill="currentColor"></path><path d="M617.97 304.6h31.25v31.25h-31.25zM432.81 521.01H300v132.81h132.81V521.01Zm-31.25 101.56h-70.31v-70.31h70.31v70.31Z" fill="currentColor"></path><path d="M350.78 571.79h31.25v31.25h-31.25zM331.25 407.73h31.25v31.25h-31.25zM392.97 470.23v31.25h31.25v-31.25h-30.47v-31.25H362.5v31.25h30.47zM518.75 313.98H550v31.25h-31.25zM456.25 285.07h31.25v60.16h-31.25zM487.5 253.82h31.25v31.25H487.5zM518.75 345.23H487.5v31.25h-31.25v31.25h62.5v-62.5zM487.5 501.48v30.46h31.25v30.47h62.5v-31.25h-62.5v-30.47H487.5v-61.71h-31.25v62.5h31.25z" fill="currentColor"></path><path d="M518.75 407.73H550v62.5h-31.25zM612.5 500.69H700v-62.5h-31.25v-30.47h-57.03v31.25h-30.47v31.25h31.25v30.47Zm0-61.72h56.25v30.47H612.5v-30.47ZM668.75 531.16H700v62.5h-31.25zM550 470.23h31.25v31.25H550zM581.25 562.41h31.25v31.25h-31.25zM612.5 531.16h31.25v31.25H612.5zM643.75 653.82v-28.91h25v-31.25H612.5v60.16h31.25zM456.25 531.94h31.25v59.38h-31.25zM518.75 653.82v-31.25h30.47v31.25h31.25v-31.25H550v-31.25h-62.5v62.5h31.25zM393.75 407.73h62.5v31.25h-62.5zM300 438.98h31.25v62.5H300z" fill="currentColor"></path><text x="50%" y="1186" fill="currentColor" font-family="sans-serif" font-size="90" font-weight="600" text-anchor="middle">¡Escaneame!</text></symbol><symbol id="f-0" viewBox="0 0 1000 1300"><rect width="1000" height="1300" rx="40" style="fill: rgb(255, 255, 255);"></rect><rect width="780" height="780" x="110" y="110" rx="40" style="fill: rgb(229, 231, 239);"></rect><path d="M960 0H40A40 40 0 0 0 0 40v920a40 40 0 0 0 40 40h920a40 40 0 0 0 40-40V40a40 40 0 0 0-40-40Zm0 960H40V40h920ZM139.81 1150v42l18.19-10.5 18.19-10.5-18.19-10.5-18.19-10.5zM505.3 1178.81a46.46 46.46 0 0 0-4.95 1.27 15.66 15.66 0 0 0-3.55 1.75 7.43 7.43 0 0 0-2.22 2.3 5.84 5.84 0 0 0-.78 3 6.26 6.26 0 0 0 1 3.53 6.82 6.82 0 0 0 2.93 2.42 11.22 11.22 0 0 0 4.77.9 15.47 15.47 0 0 0 7-1.45 13.9 13.9 0 0 0 4.63-3.55 12.38 12.38 0 0 0 2.32-4 15.66 15.66 0 0 0 1.08-5.27c.05-1.19.08-2.22.1-3.14l-5.63.91q-3.9.76-6.7 1.33ZM628.65 1157.18q-7.41 0-11 4.58a16.86 16.86 0 0 0-3.13 7.62h26.54a17.07 17.07 0 0 0-2.81-8.15c-2.04-2.7-5.25-4.05-9.6-4.05ZM834.5 1157.18q-7.41 0-11 4.58a16.87 16.87 0 0 0-3.14 7.62h26.54a17 17 0 0 0-2.8-8.15q-3.1-4.05-9.6-4.05ZM683.8 1178.81a46.46 46.46 0 0 0-4.95 1.27 15.66 15.66 0 0 0-3.55 1.75 7.59 7.59 0 0 0-2.23 2.3 5.93 5.93 0 0 0-.77 3 6.26 6.26 0 0 0 1 3.53 6.79 6.79 0 0 0 2.92 2.42 11.3 11.3 0 0 0 4.78.9 15.5 15.5 0 0 0 7-1.45 13.86 13.86 0 0 0 4.62-3.55 12.43 12.43 0 0 0 2.33-4 15.42 15.42 0 0 0 1.07-5.27c.05-1.19.09-2.22.11-3.14l-5.63.91c-2.6.52-4.84.95-6.7 1.33Z" fill="currentColor"></path><path d="M960 1040H40a40 40 0 0 0-40 40v180a40 40 0 0 0 40 40h920a40 40 0 0 0 40-40v-180a40 40 0 0 0-40-40Zm-744 161.86a12 12 0 0 1-12 12h-96a12 12 0 0 1-12-12v-61.72a12 12 0 0 1 12-12h96a12 12 0 0 1 12 12ZZM414 244H244v170h170Zm-40 130h-90v-90h90Z" fill="currentColor"></path><path d="M309 309h40v40h-40zM756 244H586v170h170Zm-40 130h-90v-90h90Z" fill="currentColor"></path><path d="M651 309h40v40h-40zM414 586H244v170h170Zm-40 130h-90v-90h90Z" fill="currentColor"></path><path d="M309 651h40v40h-40zM284 441h40v40h-40zM363 521v40h40v-40h-39v-40h-40v40h39zM524 321h40v40h-40zM444 284h40v77h-40zM484 244h40v40h-40zM524 361h-40v40h-40v40h80v-80zM484 561v39h40v39h80v-40h-80v-39h-40v-79h-40v80h40z" fill="currentColor"></path><path d="M524 441h40v80h-40zM644 560h112v-80h-40v-39h-73v40h-39v40h40Zm0-79h72v39h-72ZM716 599h40v80h-40zM564 521h40v40h-40zM604 639h40v40h-40zM644 599h40v40h-40zM684 756v-37h32v-40h-72v77h40zM444 600h40v76h-40zM524 756v-40h39v40h40v-40h-39v-40h-80v80h40zM364 441h80v40h-80zM244 481h40v80h-40z" fill="currentColor"></path><text x="272" y="1202" fill="white" font-family="sans-serif" font-size="100" font-weight="600">¡Escaneame!</text></symbol><symbol id="f-22" viewBox="0 0 1000 1300"><path d="M805.5 212.31c5.51 0 10 4.49 10 10v621h-631v-621c0-5.51 4.49-10 10-10h611m0-30h-611c-22.09 0-40 17.91-40 40v651h691v-651c0-22.09-17.91-40-40-40Z" fill="currentColor"></path><rect width="534.28" height="534.28" x="232.86" y="260.67" fill="#e5e7ef" rx="20.95" ry="20.95"></rect><rect width="908" height="27" x="46" y="843" fill="currentColor" rx="13.5" ry="13.5"></rect><path d="M809 962H191c-50.81 0-92-41.19-92-92s802 0 802 0c0 50.81-41.19 92-92 92Z" fill="currentColor"></path><path d="M768.77 971.07c-14.11-16.13-35.01-19.44-54.67-9.2-9.98-9.67-28.38-9.98-44.13-4.35-5.68 2.03-75.15 29.56-97.52 38.43-8.35-14.2-25.85-19.47-32.86-21.57-11.39-3.42-166.66-31.01-225.5-18.17-20.04 4.37-173.71 61.92-180.24 64.37-4.65 1.74-7.01 6.93-5.27 11.59a9.008 9.008 0 0 0 11.59 5.27c44.16-16.55 162.17-60.23 177.76-63.63 51.68-11.28 201.93 13.46 216.5 17.83 17.97 5.39 25.09 12.04 24.6 22.97-.57 12.63-7.05 18.07-25.67 21.56-12.73 2.39-120.55 10.82-161.02 13.87-4.96.37-8.67 4.69-8.3 9.65.36 4.73 4.3 8.33 8.96 8.32.23 0 .46 0 .69-.03 2.63-.2 31.33-2.36 64.04-4.99 8.42 4.51 41.14 22 55.26 29.06 21.87 10.93 36.25 2.87 54.47-7.34 2.17-1.22 4.46-2.5 6.87-3.81 11.02-6.01 147.26-89.29 163.74-100.45 5.16-3.49 23.08-13.64 37.18 2.48 3.41 3.9 5.03 9.02 4.55 14.41-.56 6.33-3.9 12.23-9.4 16.63-6.76 5.41-171.11 134.74-191.44 148.59-35.01 23.84-77.4 30.45-125.98 19.65-10.79-2.4-137.83-38.25-203.5-56.87a9.001 9.001 0 0 0-5.64.24l-45 17c-4.65 1.76-7 6.95-5.24 11.6 1.76 4.65 6.95 7 11.6 5.24l42.22-15.95c24.7 7 188.44 53.38 201.65 56.32 16.47 3.66 32.32 5.49 47.52 5.49 34.3 0 65.28-9.3 92.5-27.83 21.31-14.51 186.19-144.32 192.56-149.41 9.37-7.5 15.08-17.83 16.08-29.09.92-10.33-2.25-20.23-8.93-27.86Zm-223.08 94.03c-2.47 1.35-4.82 2.66-7.05 3.91-18.45 10.34-24.89 13.3-37.62 6.94-7-3.5-18.97-9.78-30.12-15.68 30.98-2.6 59.01-5.16 65.76-6.42 10.64-2 38.92-7.3 40.33-38.44.03-.65.03-1.28.03-1.91 34.65-13.74 94.17-37.3 99.01-39.03 7.65-2.73 15.7-3.29 21-1.9-36.67 23.13-141.76 87.3-151.34 92.52Z" fill="currentColor"></path><path fill="currentColor" d="M0 1300h17.07L195 1188l-69-191-126 35.71V1300z"></path><path d="M431.81 327.81H299v132.81h132.81V327.81Zm-31.25 101.56h-70.31v-70.31h70.31v70.31Z" fill="currentColor"></path><path d="M349.78 378.59h31.25v31.25h-31.25zM699 327.81H566.19v132.81H699V327.81Zm-31.25 101.56h-70.31v-70.31h70.31v70.31Z" fill="currentColor"></path><path d="M616.97 378.59h31.25v31.25h-31.25zM431.81 595H299v132.81h132.81V595Zm-31.25 101.56h-70.31v-70.31h70.31v70.31Z" fill="currentColor"></path><path d="M349.78 645.78h31.25v31.25h-31.25zM330.25 481.72h31.25v31.25h-31.25zM391.97 544.22v31.25h31.25v-31.25h-30.47v-31.25H361.5v31.25h30.47zM517.75 387.97H549v31.25h-31.25zM455.25 359.06h31.25v60.16h-31.25zM486.5 327.81h31.25v31.25H486.5zM517.75 419.22H486.5v31.25h-31.25v31.25h62.5v-62.5zM486.5 575.47v30.47h31.25v30.46h62.5v-31.25h-62.5v-30.46H486.5v-61.72h-31.25v62.5h31.25z" fill="currentColor"></path><path d="M517.75 481.72H549v62.5h-31.25zM611.5 574.69H699v-62.5h-31.25v-30.47h-57.03v31.25h-30.47v31.25h31.25v30.47Zm0-61.72h56.25v30.47H611.5v-30.47ZM667.75 605.15H699v62.5h-31.25zM549 544.22h31.25v31.25H549zM580.25 636.4h31.25v31.25h-31.25zM611.5 605.15h31.25v31.25H611.5zM642.75 727.81V698.9h25v-31.25H611.5v60.16h31.25zM455.25 605.94h31.25v59.38h-31.25zM517.75 727.81v-31.25h30.47v31.25h31.25v-31.25H549v-31.25h-62.5v62.5h31.25zM392.75 481.72h62.5v31.25h-62.5zM299 512.97h31.25v62.5H299z" fill="currentColor"></path><text x="50%" y="120" fill="currentColor" font-family="sans-serif" font-size="90" font-weight="600" text-anchor="middle">¡Escaneame!</text></symbol><symbol id="f-13" viewBox="0 0 1000 1300"><path d="m747.71 174.5 54.27-40H479.4c1.7 3.78.6 8.36-2.87 10.92l-39.45 29.08h310.63ZM778.05 174.5H860v223.42l40-29.48V174.5c0-22.09-17.91-40-40-40h-27.68l-54.27 40ZM140 282.07V174.5h266.74l54.27-40H399l-49.49 36.48a9.004 9.004 0 0 1-5.33 1.76 8.99 8.99 0 0 1-7.25-3.66c-2.95-4-2.1-9.64 1.91-12.58l29.83-21.99H198.71l-17.76 13.09a9.004 9.004 0 0 1-5.33 1.76 8.99 8.99 0 0 1-6.84-14.84h-28.77c-22.09 0-40 17.91-40 40v137.06l40-29.48Z" fill="currentColor"></path><path d="M887.36 1066.27a9.004 9.004 0 0 1-5.33 1.76 8.99 8.99 0 0 1-7.25-3.66c-2.95-4-2.1-9.64 1.91-12.58l23.32-17.19V787.19l-17.25 12.71a9.004 9.004 0 0 1-5.33 1.76 8.99 8.99 0 0 1-7.25-3.66c-2.95-4-2.1-9.64 1.91-12.58l27.92-20.58v-47.87l-10.96 8.08a9.004 9.004 0 0 1-5.33 1.76 8.99 8.99 0 0 1-7.25-3.66c-2.95-4-2.1-9.64 1.91-12.58l21.64-15.95V461.45l-1.7 1.26a9.004 9.004 0 0 1-5.33 1.76 8.99 8.99 0 0 1-7.25-3.66c-2.95-4-2.1-9.64 1.91-12.58l12.38-9.13v-48.27l-40 29.48v474.22H140v-590.1l-40 29.48v45.25l18.32-13.57c3.99-2.96 9.63-2.12 12.59 1.87 2.96 3.99 2.12 9.63-1.87 12.59l-29.03 21.51v237.09l22.15-16.33c4-2.95 9.63-2.1 12.58 1.91 2.95 4 2.1 9.64-1.91 12.58L100 661.01v40.92l12.46-9.19c4-2.95 9.63-2.1 12.58 1.91 2.95 4 2.1 9.64-1.91 12.58l-23.14 17.06v248.49l11.04-8.14c4-2.95 9.64-2.1 12.58 1.91s2.1 9.64-1.91 12.58l-21.72 16.01v131.34c0 22.09 17.91 40 40 40h20.43l43.17-31.82c4-2.95 9.64-2.1 12.58 1.91s2.1 9.64-1.91 12.58l-23.51 17.33h307.61l26.37-19.44c4-2.95 9.63-2.1 12.58 1.91 2.95 4 2.1 9.64-1.91 12.58l-6.71 4.95h273.1l38.99-28.74c4-2.95 9.64-2.1 12.58 1.91s2.1 9.64-1.91 12.58l-19.33 14.25h27.87c22.09 0 40-17.91 40-40v-69.54l-12.64 9.32Z" fill="currentColor"></path><rect width="624" height="624" x="188" y="222.5" fill="#e5e7ef" rx="40" ry="40"></rect><path d="M45.62 358.14a8.99 8.99 0 0 1-7.25-3.66c-2.95-4-2.1-9.64 1.91-12.58l108.69-80.11c4-2.95 9.63-2.1 12.58 1.91 2.95 4 2.1 9.64-1.91 12.58L50.95 356.39a9.004 9.004 0 0 1-5.33 1.76ZM16.49 706.72a8.99 8.99 0 0 1-7.25-3.66c-2.95-4-2.1-9.64 1.91-12.58l108.69-80.11c4-2.95 9.64-2.1 12.58 1.91s2.1 9.64-1.91 12.58L21.82 704.97a9.004 9.004 0 0 1-5.33 1.76ZM97.94 1219.07a8.99 8.99 0 0 1-7.25-3.66c-2.95-4-2.1-9.64 1.91-12.58l108.69-80.11c4-2.95 9.63-2.1 12.58 1.91 2.95 4 2.1 9.64-1.91 12.58l-108.69 80.11a9.004 9.004 0 0 1-5.33 1.76ZM875.11 789.68a8.99 8.99 0 0 1-7.25-3.66c-2.95-4-2.1-9.64 1.91-12.58l108.69-80.11c4-2.95 9.64-2.1 12.58 1.91s2.1 9.64-1.91 12.58l-108.69 80.11a9.004 9.004 0 0 1-5.33 1.76ZM419.06 1231.45a8.99 8.99 0 0 1-7.25-3.66c-2.95-4-2.1-9.64 1.91-12.58l108.69-80.11c4-2.95 9.64-2.1 12.58 1.91s2.1 9.64-1.91 12.58l-108.69 80.11a9.004 9.004 0 0 1-5.33 1.76ZM831.84 425.18a8.99 8.99 0 0 1-7.25-3.66c-2.95-4-2.1-9.64 1.91-12.58l99.11-73.05c4-2.95 9.63-2.1 12.58 1.91 2.95 4 2.1 9.64-1.91 12.58l-99.11 73.05a9.004 9.004 0 0 1-5.33 1.76ZM890.65 452.47a8.99 8.99 0 0 1-7.25-3.66c-2.95-4-2.1-9.64 1.91-12.58l74.04-54.57c4-2.95 9.63-2.1 12.58 1.91 2.95 4 2.1 9.64-1.91 12.58l-74.04 54.57a9.004 9.004 0 0 1-5.33 1.76ZM72.96 728.38a8.99 8.99 0 0 1-7.25-3.66c-2.95-4-2.1-9.64 1.91-12.58l42.53-31.35c4-2.95 9.64-2.1 12.58 1.91 2.95 4 2.1 9.64-1.91 12.58l-42.53 31.35a9.004 9.004 0 0 1-5.33 1.76ZM45.9 1206.31a8.99 8.99 0 0 1-7.25-3.66c-2.95-4-2.1-9.64 1.91-12.58l42.53-31.35c4-2.95 9.63-2.1 12.58 1.91 2.95 4 2.1 9.64-1.91 12.58l-42.53 31.35a9.004 9.004 0 0 1-5.33 1.76ZM341.86 160.76a8.99 8.99 0 0 1-7.25-3.66c-2.95-4-2.1-9.64 1.91-12.58l108.69-80.11c4-2.95 9.64-2.1 12.58 1.91 2.95 4 2.1 9.64-1.91 12.58l-108.69 80.11a9.004 9.004 0 0 1-5.33 1.76ZM83.39 398c-2.75 0-5.47-1.26-7.24-3.64-2.96-3.99-2.12-9.63 1.88-12.59l37.98-28.14c3.99-2.96 9.63-2.12 12.59 1.88 2.96 3.99 2.12 9.63-1.88 12.59l-37.98 28.14a8.984 8.984 0 0 1-5.35 1.77ZM758.34 1205.04a8.99 8.99 0 0 1-7.25-3.66c-2.95-4-2.1-9.64 1.91-12.58l85.48-63c4-2.95 9.63-2.1 12.58 1.91 2.95 4 2.1 9.64-1.91 12.58l-85.48 63a9.004 9.004 0 0 1-5.33 1.76ZM407.03 180.79a8.99 8.99 0 0 1-7.25-3.66c-2.95-4-2.1-9.64 1.91-12.58l61.85-45.59c4-2.95 9.64-2.1 12.58 1.91 2.95 4 2.1 9.64-1.91 12.58l-61.85 45.59a9.004 9.004 0 0 1-5.33 1.76ZM767.87 97.2a8.99 8.99 0 0 1-7.25-3.66c-2.95-4-2.1-9.64 1.91-12.58l61.85-45.59c4-2.95 9.64-2.1 12.58 1.91s2.1 9.64-1.91 12.58L773.2 95.45a9.004 9.004 0 0 1-5.33 1.76ZM173.3 137.37a8.99 8.99 0 0 1-7.25-3.66c-2.95-4-2.1-9.64 1.91-12.58l61.85-45.59c4-2.95 9.63-2.1 12.58 1.91 2.95 4 2.1 9.64-1.91 12.58l-61.85 45.59a9.004 9.004 0 0 1-5.33 1.76ZM879.71 1056.06a8.99 8.99 0 0 1-7.25-3.66c-2.95-4-2.1-9.64 1.91-12.58l94.79-69.87c4-2.95 9.63-2.1 12.58 1.91 2.95 4 2.1 9.64-1.91 12.58l-94.79 69.87a9.004 9.004 0 0 1-5.33 1.76ZM739.72 186.9a8.99 8.99 0 0 1-7.25-3.66c-2.95-4-2.1-9.64 1.91-12.58l90-66.33c4-2.95 9.64-2.1 12.58 1.91s2.1 9.64-1.91 12.58l-90 66.33a9.004 9.004 0 0 1-5.33 1.76ZM520.45 97.2a8.99 8.99 0 0 1-7.25-3.66c-2.95-4-2.1-9.64 1.91-12.58L536 65.56c4-2.95 9.64-2.1 12.58 1.91 2.95 4 2.1 9.64-1.91 12.58l-20.89 15.4a9.004 9.004 0 0 1-5.33 1.76ZM881.4 714.82a8.99 8.99 0 0 1-7.25-3.66c-2.95-4-2.1-9.64 1.91-12.58l42.44-31.28c4-2.95 9.63-2.1 12.58 1.91 2.95 4 2.1 9.64-1.91 12.58l-42.44 31.28a9.004 9.004 0 0 1-5.33 1.76ZM71.63 1000.22a8.99 8.99 0 0 1-7.25-3.66c-2.95-4-2.1-9.64 1.91-12.58l42.44-31.28c4-2.95 9.64-2.1 12.58 1.91s2.1 9.64-1.91 12.58l-42.44 31.28a9.004 9.004 0 0 1-5.33 1.76ZM516.74 1227.53a8.99 8.99 0 0 1-7.25-3.66c-2.95-4-2.1-9.64 1.91-12.58l20.89-15.4c4-2.95 9.63-2.1 12.58 1.91 2.95 4 2.1 9.64-1.91 12.58l-20.89 15.4a9.004 9.004 0 0 1-5.33 1.76Z" fill="currentColor"></path><path d="M432.81 334.5H300v132.81h132.81V334.5Zm-31.25 101.56h-70.31v-70.31h70.31v70.31Z" fill="currentColor"></path><path d="M350.78 385.28h31.25v31.25h-31.25zM700 334.5H567.19v132.81H700V334.5Zm-31.25 101.56h-70.31v-70.31h70.31v70.31Z" fill="currentColor"></path><path d="M617.97 385.28h31.25v31.25h-31.25zM432.81 601.69H300V734.5h132.81V601.69Zm-31.25 101.56h-70.31v-70.31h70.31v70.31Z" fill="currentColor"></path><path d="M350.78 652.47h31.25v31.25h-31.25zM331.25 488.41h31.25v31.25h-31.25zM392.97 550.91v31.25h31.25v-31.25h-30.47v-31.25H362.5v31.25h30.47zM518.75 394.66H550v31.25h-31.25zM456.25 365.75h31.25v60.16h-31.25zM487.5 334.5h31.25v31.25H487.5zM518.75 425.91H487.5v31.25h-31.25v31.25h62.5v-62.5zM487.5 582.16v30.46h31.25v30.47h62.5v-31.25h-62.5v-30.46H487.5v-61.72h-31.25v62.5h31.25z" fill="currentColor"></path><path d="M518.75 488.41H550v62.5h-31.25zM612.5 581.38H700v-62.5h-31.25v-30.47h-57.03v31.25h-30.47v31.25h31.25v30.47Zm0-61.72h56.25v30.47H612.5v-30.47ZM668.75 611.84H700v62.5h-31.25zM550 550.91h31.25v31.25H550zM581.25 643.09h31.25v31.25h-31.25zM612.5 611.84h31.25v31.25H612.5zM643.75 734.5v-28.91h25v-31.25H612.5v60.16h31.25zM456.25 612.62h31.25V672h-31.25zM518.75 734.5v-31.25h30.47v31.25h31.25v-31.25H550V672h-62.5v62.5h31.25zM393.75 488.41h62.5v31.25h-62.5zM300 519.66h31.25v62.5H300z" fill="currentColor"></path><text x="50%" y="1058" fill="white" font-family="sans-serif" font-size="90" font-weight="600" text-anchor="middle">¡Escaneame!</text></symbol><symbol id="f-30" viewBox="0 0 1000 1300"><path d="M845.5 483.42v-151.2H469.88c-.07.14-.13.28-.21.42-6.44 11.55-14.36 21.2-24.61 29.58H815.5v121.1l30 .1ZM815.52 1065.96v-147.1l30-.1v147.2h-30zM185.85 1021.88V362.22h110.12c-5.01-6.58-10.1-13.12-14.47-20.14-2.05-3.29-3.92-6.56-5.63-9.86H155.85v689.66h30Z" fill="currentColor"></path><rect width="533.24" height="533.24" x="234.05" y="410.43" fill="#e5e7ef" rx="27.03" ry="27.03"></rect><path d="M793.9 1193.76H207.45c-28.5 0-51.6-23.1-51.6-51.6V995.57H845.5v146.59c0 28.5-23.1 51.6-51.6 51.6ZM112.42 789.58c-29.16 0-70.21-26.14-70.21-84.26 0-39.83 21.83-82.36 39.38-116.53 6.76-13.18 13.16-25.63 16.82-35.23 3.91-10.23-.88-28.58-6.42-49.83-9.01-34.54-21.35-81.86-9.78-140.39 10.1-51.08 36.67-89.2 78.98-113.27 32.21-18.33 64.63-23.15 79.65-25.19.51-.56 1.04-1.15 1.6-1.77 12.59-13.89 42.09-46.42 81.51-75.64 50.34-37.32 99.13-56.24 145.02-56.24 48.39 0 94.67 15.41 133.85 44.56 29.64 22.05 44.91 44.25 45.55 45.19 4.66 6.85 2.89 16.18-3.96 20.84s-16.18 2.88-20.84-3.96c-.11-.16-13.64-19.6-39.56-38.67-34.24-25.19-72.94-37.96-115.04-37.96-62.15 0-130.89 41.06-204.3 122.03-2.73 3.01-4.53 5-5.88 6.35a15.01 15.01 0 0 1-8.33 4.22c-1.12.17-2.53.36-4.18.59-76.33 10.29-121.63 48.9-134.65 114.75-10.24 51.79.64 93.49 9.38 127 7.12 27.31 12.75 48.89 5.42 68.1-4.26 11.14-11.01 24.3-18.16 38.23-16.07 31.3-36.06 70.25-36.06 102.83 0 41 27.09 54.26 40.21 54.26 19.69 0 34.06-11.33 42.7-33.67 2.99-7.73 11.67-11.57 19.4-8.58 7.73 2.99 11.57 11.67 8.58 19.4-7.2 18.63-17.93 32.66-31.89 41.68-11.3 7.31-24.71 11.17-38.79 11.17Z" fill="currentColor"></path><path d="M368.57 407.74c-31.09 0-59.37-12.62-81.79-36.51-16.56-17.64-24.19-35.46-24.51-36.21-3.22-7.63.35-16.43 7.98-19.65 7.63-3.23 16.43.35 19.65 7.98.04.09 6.23 14.27 19.39 28.03 16.72 17.49 36.66 26.35 59.27 26.35 56.2 0 78.15-38.06 78.37-38.44 2.65-4.74 7.66-7.67 13.09-7.67h340.49c6.13-20.2 6.29-41.46.39-62.06-8.1-28.3-26.74-51.75-52.47-66.04-25.74-14.28-55.5-17.69-83.8-9.59-17.64 5.05-33.84 14.46-46.83 27.23-5.91 5.81-15.41 5.72-21.21-.19-5.81-5.91-5.72-15.41.19-21.21 16.55-16.26 37.17-28.25 59.6-34.67 36-10.31 73.87-5.97 106.61 12.2 32.75 18.17 56.45 48.01 66.76 84.01 8.67 30.31 7.04 61.75-4.72 90.93a15.004 15.004 0 0 1-13.91 9.39H467.9c-11.4 14.9-42.1 46.11-99.33 46.11ZM340.45 250.11c-2.2 0-4.4-.8-6.13-2.41-3.64-3.39-3.84-9.08-.46-12.72 33.35-35.84 84.99-78.24 141.54-76.76 16.58.44 32.86 3.54 48.4 9.22 4.67 1.71 7.07 6.88 5.36 11.54-1.71 4.67-6.87 7.07-11.54 5.36-13.7-5.01-28.07-7.75-42.69-8.13-49.83-1.35-97.07 37.9-127.89 71.02a8.956 8.956 0 0 1-6.59 2.87ZM925.1 948.81h-94.01v-30h94.01c24.57 0 44.56-19.99 44.56-44.56v-346.3c0-24.57-19.99-44.56-44.56-44.56h-94.01v-30h94.01c41.11 0 74.56 33.45 74.56 74.56v346.3c0 41.12-33.45 74.56-74.56 74.56Z" fill="currentColor"></path><path d="M905.92 868.06h-89.83V534.13h89.83c14.36 0 26.04 11.68 26.04 26.04v281.85c0 14.36-11.68 26.04-26.04 26.04Zm-59.83-30h55.87V564.13h-55.87v273.93Z" fill="currentColor"></path><path d="M435.94 474.33H303.13v132.81h132.81V474.33Zm-31.25 101.56h-70.31v-70.31h70.31v70.31Z" fill="currentColor"></path><path d="M353.91 525.11h31.25v31.25h-31.25zM703.13 474.33H570.32v132.81h132.81V474.33Zm-31.25 101.56h-70.31v-70.31h70.31v70.31Z" fill="currentColor"></path><path d="M621.1 525.11h31.25v31.25H621.1zM435.94 741.52H303.13v132.81h132.81V741.52Zm-31.25 101.56h-70.31v-70.31h70.31v70.31Z" fill="currentColor"></path><path d="M353.91 792.3h31.25v31.25h-31.25zM334.38 628.24h31.25v31.25h-31.25zM396.1 690.74v31.25h31.25v-31.25h-30.47v-31.25h-31.25v31.25h30.47zM521.88 534.49h31.25v31.25h-31.25zM459.38 505.58h31.25v60.16h-31.25zM490.63 474.33h31.25v31.25h-31.25zM521.88 565.74h-31.25v31.25h-31.25v31.25h62.5v-62.5zM490.63 721.99v30.47h31.25v30.47h62.5v-31.25h-62.5v-30.47h-31.25v-61.72h-31.25v62.5h31.25z" fill="currentColor"></path><path d="M521.88 628.24h31.25v62.5h-31.25zM615.63 721.21h87.5v-62.5h-31.25v-30.47h-57.03v31.25h-30.47v31.25h31.25v30.47Zm0-61.72h56.25v30.47h-56.25v-30.47ZM671.88 751.68h31.25v62.5h-31.25zM553.13 690.74h31.25v31.25h-31.25zM584.38 782.93h31.25v31.25h-31.25zM615.63 751.68h31.25v31.25h-31.25zM646.88 874.33v-28.9h25v-31.25h-56.25v60.15h31.25zM459.38 752.46h31.25v59.38h-31.25zM521.88 874.33v-31.25h30.47v31.25h31.25v-31.25h-30.47v-31.25h-62.5v62.5h31.25zM396.88 628.24h62.5v31.25h-62.5zM303.13 659.49h31.25v62.5h-31.25z" fill="currentColor"></path><text x="50%" y="1120" fill="white" font-family="sans-serif" font-size="90" font-weight="600" text-anchor="middle">¡Escaneame!</text></symbol><symbol id="f-21" viewBox="0 0 1000 990"><g fill="#585858"><path d="M846.16 749.44c-66.41 0-120.25 53.84-120.25 120.25s53.84 120.25 120.25 120.25 120.25-53.84 120.25-120.25-53.84-120.25-120.25-120.25Zm0 197.14c-42.46 0-76.88-34.42-76.88-76.88s34.42-76.88 76.88-76.88 76.88 34.42 76.88 76.88-34.42 76.88-76.88 76.88Z"></path><circle cx="846.16" cy="869.69" r="38.5" transform="rotate(-45 846.157 869.69)"></circle></g><g fill="#585858"><path d="M338.81 749.44c-66.41 0-120.25 53.84-120.25 120.25s53.84 120.25 120.25 120.25 120.25-53.84 120.25-120.25-53.84-120.25-120.25-120.25Zm0 197.14c-42.46 0-76.88-34.42-76.88-76.88s34.42-76.88 76.88-76.88 76.88 34.42 76.88 76.88-34.42 76.88-76.88 76.88Z"></path><circle cx="338.81" cy="869.69" r="38.5" transform="rotate(-45 338.808 869.691)"></circle></g><path d="M1000 835.9v-.08c0-84.96-68.88-153.84-153.84-153.84s-153.84 68.88-153.84 153.84v.08H1000Z" fill="currentColor"></path><path fill="#585858" d="m871.73 683.59-103.67-218.7 12.65-2.85-20.27-89.98c-2.93-13.02-15.86-21.19-28.88-18.26l-104.75 23.6 18.91 83.92c3.69 16.37 19.95 26.65 36.31 22.96l35.33 213.86a52.948 52.948 0 0 1-14.79 46.05l-44.73 44.73a52.915 52.915 0 0 1-37.42 15.5h-73.36V670.43h31.4c6.81 0 12.33-5.52 12.33-12.33v-47.49c0-6.81-5.52-12.33-12.33-12.33H273.07c-6.81 0-12.33 5.52-12.33 12.33v27.58C184.1 669.11 130 744.19 130 831.91c0 5.35.2 10.66.6 15.91.93 12.33 11.14 21.88 23.5 21.88h495.04c13.3 0 26.11-5.01 35.89-14.03l186.01-171.62-.12-.16.8-.31Z"></path><rect width="124.42" height="35.57" x="560.55" y="378.91" rx="15.53" ry="15.53" transform="rotate(-12.7 622.648 396.61)" fill="currentColor"></rect><path d="M837.95 388.77c0-5.84-4.74-10.57-10.57-10.54-8.38.03-18.86.25-20.93.25-29.72 0-53.82 24.1-53.82 53.82s24.1 53.82 53.82 53.82c2.07 0 12.55.22 20.93.25 5.84.02 10.57-4.71 10.57-10.54v-87.06ZM498.38 869.69v-.09c0-88.13-71.44-159.57-159.57-159.57S179.24 781.47 179.24 869.6v.09h319.14ZM494.6 22.06c9.93 0 18 8.07 18 18v472.6H22V40.06c0-9.93 8.07-18 18-18h454.6m0-22H40c-22.09 0-40 17.91-40 40v494.6h534.6V40.06c0-22.09-17.91-40-40-40Z" fill="currentColor"></path><rect width="413.35" height="413.35" x="60.62" y="60.68" fill="#e5e7ef" rx="20.95" ry="20.95"></rect><path d="M494.6 647.9H40c-22.09 0-40-17.91-40-40v-93.63h534.6v93.63c0 22.09-17.91 40-40 40Z" fill="currentColor"></path><path d="M216.91 116.38H117.3v99.61h99.61v-99.61Zm-23.44 76.17h-52.73v-52.73h52.73v52.73Z" fill="currentColor"></path><path d="M155.39 154.46h23.44v23.44h-23.44zM417.3 116.38h-99.61v99.61h99.61v-99.61Zm-23.44 76.17h-52.73v-52.73h52.73v52.73Z" fill="currentColor"></path><path d="M355.78 154.46h23.44v23.44h-23.44zM216.91 316.77H117.3v99.61h99.61v-99.61Zm-23.44 76.17h-52.73v-52.73h52.73v52.73Z" fill="currentColor"></path><path d="M155.39 354.85h23.44v23.44h-23.44zM140.74 231.81h23.44v23.44h-23.44zM187.03 278.68v23.44h23.43v-23.44h-22.85v-23.44h-23.43v23.44h22.85zM281.36 161.49h23.44v23.44h-23.44zM234.49 139.81h23.44v45.12h-23.44zM257.93 116.38h23.44v23.44h-23.44zM281.36 184.93h-23.43v23.44h-23.44v23.44h46.87v-46.88zM257.93 302.12v22.85h23.43v22.85h46.88v-23.44h-46.88v-22.85h-23.43v-46.29h-23.44v46.88h23.44z" fill="currentColor"></path><path d="M281.36 231.81h23.44v46.88h-23.44zM351.68 301.53h65.62v-46.88h-23.44V231.8h-42.77v23.44h-22.85v23.44h23.44v22.85Zm0-46.29h42.19v22.85h-42.19v-22.85ZM393.86 324.38h23.44v46.88h-23.44zM304.8 278.68h23.44v23.44H304.8zM328.24 347.82h23.44v23.44h-23.44zM351.68 324.38h23.44v23.44h-23.44zM375.11 416.38V394.7h18.75v-23.44h-42.18v45.12h23.43zM234.49 324.97h23.44v44.53h-23.44zM281.36 416.38v-23.44h22.85v23.44h23.44v-23.44H304.8V369.5h-46.87v46.88h23.43zM187.61 231.81h46.88v23.44h-46.88zM117.3 255.24h23.44v46.88H117.3z" fill="currentColor"></path><text x="267" y="599" fill="white" font-family="sans-serif" font-size="70" font-weight="600" text-anchor="middle">¡Escaneame!</text></symbol><symbol id="f-29" viewBox="0 0 1000 1300"><rect width="534.28" height="534.28" x="232.86" y="375.16" fill="#e5e7ef" rx="20.95" ry="20.95"></rect><rect width="835.09" height="30" x="82.46" y="958.2" rx="13.65" ry="13.65" fill="currentColor"></rect><path d="M809 1078.7H191c-50.81 0-92-41.19-92-92s802 0 802 0c0 50.81-41.19 92-92 92Z" fill="currentColor"></path><path d="M709.27 1002.88H290.73c-77.87 0-141.23-63.36-141.23-141.23V317.59c0-13.62 11.08-24.71 24.71-24.71h651.58c13.63 0 24.71 11.08 24.71 24.71v106.36c83.29 7.6 148.76 77.83 148.76 163.08S933.8 742.51 850.5 750.11v111.55c0 77.88-63.36 141.23-141.23 141.23Zm-529.77-680v538.77c0 61.33 49.9 111.23 111.23 111.23h418.54c61.33 0 111.23-49.9 111.23-111.23V720.78h15c73.75 0 133.76-60 133.76-133.76s-60-133.76-133.76-133.76h-15V322.87h-641Z" fill="currentColor"></path><path d="M835.5 675.23h-15V498.82h15c48.64 0 88.2 39.57 88.2 88.2s-39.57 88.2-88.2 88.2Zm15-144.45v112.49c24.85-6.63 43.2-29.34 43.2-56.24s-18.36-49.61-43.2-56.24ZM364.45 253.68c-3.03 0-6.08-.91-8.73-2.81-6.73-4.83-8.28-14.2-3.45-20.93 6.52-9.14 16.88-27.82 16.88-38.99 0-16.59-4.15-24.11-8.95-32.82-5.03-9.13-10.74-19.49-10.74-37.14 0-36.3 24.26-56.21 25.29-57.04l18.79 23.38.13-.11c-.58.49-14.21 12.23-14.21 33.77 0 9.94 2.79 15 7.01 22.66 5.65 10.24 12.67 22.99 12.67 47.3s-20.19 53.25-22.49 56.47c-2.93 4.09-7.53 6.26-12.2 6.26ZM490.14 253.68c-3.03 0-6.08-.91-8.73-2.81-6.73-4.83-8.28-14.2-3.45-20.93 6.52-9.14 16.88-27.82 16.88-38.99 0-16.59-4.15-24.11-8.95-32.82-5.03-9.13-10.74-19.49-10.74-37.14 0-36.3 24.26-56.21 25.29-57.04l18.79 23.38.13-.11c-.58.49-14.21 12.23-14.21 33.77 0 9.94 2.79 15 7.01 22.66 5.65 10.24 12.67 22.99 12.67 47.3s-20.19 53.25-22.49 56.47c-2.93 4.09-7.53 6.26-12.2 6.26ZM615.84 253.68c-3.03 0-6.08-.91-8.73-2.81-6.73-4.83-8.28-14.2-3.45-20.93 6.52-9.14 16.88-27.82 16.88-38.99 0-16.59-4.15-24.11-8.95-32.82-5.03-9.13-10.74-19.49-10.74-37.14 0-36.3 24.26-56.21 25.29-57.04l18.79 23.38.13-.11c-.58.49-14.21 12.23-14.21 33.77 0 9.94 2.79 15 7.01 22.66 5.65 10.24 12.67 22.99 12.67 47.3s-20.19 53.25-22.49 56.47c-2.93 4.09-7.53 6.26-12.2 6.26ZM432.81 442.3H300v132.81h132.81V442.3Zm-31.25 101.56h-70.31v-70.31h70.31v70.31Z" fill="currentColor"></path><path d="M350.78 493.08h31.25v31.25h-31.25zM700 442.3H567.19v132.81H700V442.3Zm-31.25 101.56h-70.31v-70.31h70.31v70.31Z" fill="currentColor"></path><path d="M617.97 493.08h31.25v31.25h-31.25zM432.81 709.49H300V842.3h132.81V709.49Zm-31.25 101.56h-70.31v-70.31h70.31v70.31Z" fill="currentColor"></path><path d="M350.78 760.27h31.25v31.25h-31.25zM331.25 596.21h31.25v31.25h-31.25zM392.97 658.71v31.25h31.25v-31.25h-30.47v-31.25H362.5v31.25h30.47zM518.75 502.46H550v31.25h-31.25zM456.25 473.55h31.25v60.16h-31.25zM487.5 442.3h31.25v31.25H487.5zM518.75 533.71H487.5v31.25h-31.25v31.25h62.5v-62.5zM487.5 689.96v30.47h31.25v30.46h62.5v-31.25h-62.5v-30.46H487.5v-61.72h-31.25v62.5h31.25z" fill="currentColor"></path><path d="M518.75 596.21H550v62.5h-31.25zM612.5 689.18H700v-62.5h-31.25v-30.47h-57.03v31.25h-30.47v31.25h31.25v30.47Zm0-61.72h56.25v30.47H612.5v-30.47ZM668.75 719.64H700v62.5h-31.25zM550 658.71h31.25v31.25H550zM581.25 750.89h31.25v31.25h-31.25zM612.5 719.64h31.25v31.25H612.5zM643.75 842.3v-28.91h25v-31.25H612.5v60.16h31.25zM456.25 720.43h31.25v59.38h-31.25zM518.75 842.3v-31.25h30.47v31.25h31.25v-31.25H550V779.8h-62.5v62.5h31.25zM393.75 596.21h62.5v31.25h-62.5zM300 627.46h31.25v62.5H300z" fill="currentColor"></path><text x="50%" y="1215" fill="currentColor" font-family="sans-serif" font-size="90" font-weight="600" text-anchor="middle">¡Escaneame!</text></symbol><symbol id="f-28" viewBox="0 0 1000 1300"><path d="M794.94 490.13c11.66 0 21.15 9.49 21.15 21.15v611.03H183.91V511.28c0-11.66 9.49-21.15 21.15-21.15h589.88m0-30.75H205.06c-28.67 0-51.9 23.24-51.9 51.9v641.78h693.68V511.28c0-28.67-23.24-51.9-51.9-51.9Z" fill="currentColor"></path><rect width="536.35" height="536.35" x="231.82" y="538.04" fill="#e5e7ef" rx="27.19" ry="27.19"></rect><path d="M794.94 1300H205.06c-28.67 0-51.9-23.24-51.9-51.9v-121.5h693.68v121.5c0 28.67-23.24 51.9-51.9 51.9ZM650.77 324.53c-21.58 0-42.95-5.41-61.8-15.65-6.73-3.66-9.22-12.08-5.57-18.81 3.66-6.73 12.08-9.22 18.81-5.57 14.8 8.04 31.59 12.29 48.56 12.29 56.19 0 101.9-45.71 101.9-101.9s-45.71-101.9-101.9-101.9c-12.85 0-25.36 2.35-37.19 7-.04.02-.08.03-.12.05l-.33.13c-7.12 2.8-15.16-.69-17.98-7.81-.34-.86-.59-1.73-.75-2.6-16.44-36.67-52.63-60.19-93.01-60.19s-78.83 25-94.5 63.69c-2.82 6.97-10.68 10.43-17.73 7.78l-2.11-.79c-.08-.03-.17-.06-.25-.1-11.95-4.75-24.6-7.16-37.6-7.16-56.19 0-101.9 45.71-101.9 101.9s45.71 101.9 101.9 101.9c16.97 0 33.76-4.25 48.56-12.29 6.73-3.66 15.15-1.16 18.81 5.57 3.66 6.73 1.16 15.15-5.57 18.81-18.85 10.24-40.22 15.65-61.8 15.65-71.48 0-129.64-58.15-129.64-129.64S277.71 65.25 349.2 65.25c12.85 0 25.45 1.86 37.58 5.53 9.77-18.46 23.87-34.29 41.29-46.26 21.63-14.85 46.98-22.7 73.31-22.7 48.24 0 91.78 26.4 114.22 68.25 11.38-3.2 23.15-4.82 35.15-4.82 71.48 0 129.64 58.15 129.64 129.64s-58.15 129.64-129.64 129.64Z" fill="currentColor"></path><path d="M668.45 475.68c-8.49 0-15.38-6.88-15.38-15.38V310.67c0-8.49 6.88-15.38 15.38-15.38s15.38 6.88 15.38 15.38V460.3c0 8.49-6.88 15.38-15.38 15.38ZM333.47 475.68c-8.49 0-15.38-6.88-15.38-15.38V310.67c0-8.49 6.88-15.38 15.38-15.38s15.38 6.88 15.38 15.38V460.3c0 8.49-6.88 15.38-15.38 15.38ZM500 431.4c-5.1 0-9.23-4.13-9.23-9.23v-70.94c0-5.1 4.13-9.23 9.23-9.23s9.23 4.13 9.23 9.23v70.94c0 5.1-4.13 9.23-9.23 9.23ZM424.94 431.4c-5.1 0-9.23-4.13-9.23-9.23v-70.94c0-5.1 4.13-9.23 9.23-9.23s9.23 4.13 9.23 9.23v70.94c0 5.1-4.13 9.23-9.23 9.23ZM575.06 431.4c-5.1 0-9.23-4.13-9.23-9.23v-70.94c0-5.1 4.13-9.23 9.23-9.23s9.23 4.13 9.23 9.23v70.94c0 5.1-4.13 9.23-9.23 9.23Z" fill="currentColor"></path><path d="M667.49 433.5H332.51c-5.1 0-9.23-4.13-9.23-9.23s4.13-9.23 9.23-9.23h334.98c5.1 0 9.23 4.13 9.23 9.23s-4.13 9.23-9.23 9.23Z" fill="currentColor"></path><path d="M432.81 605.9H300v132.81h132.81V605.9Zm-31.25 101.56h-70.31v-70.31h70.31v70.31Z" fill="currentColor"></path><path d="M350.78 656.68h31.25v31.25h-31.25zM700 605.9H567.19v132.81H700V605.9Zm-31.25 101.56h-70.31v-70.31h70.31v70.31Z" fill="currentColor"></path><path d="M617.97 656.68h31.25v31.25h-31.25zM432.81 873.08H300v132.81h132.81V873.08Zm-31.25 101.56h-70.31v-70.31h70.31v70.31Z" fill="currentColor"></path><path d="M350.78 923.86h31.25v31.25h-31.25zM331.25 759.8h31.25v31.25h-31.25zM392.97 822.3v31.25h31.25V822.3h-30.47v-31.25H362.5v31.25h30.47zM518.75 666.05H550v31.25h-31.25zM456.25 637.15h31.25v60.16h-31.25zM487.5 605.9h31.25v31.25H487.5z" fill="currentColor"></path><path d="M518.75 697.3H487.5v31.25h-31.25v31.25h62.5v-62.5zM487.5 853.55v30.47h31.25v30.47h62.5v-31.25h-62.5v-30.47H487.5v-61.72h-31.25v62.5h31.25z" fill="currentColor"></path><path d="M518.75 759.8H550v62.5h-31.25zM612.5 852.77H700v-62.5h-31.25V759.8h-57.03v31.25h-30.47v31.25h31.25v30.47Zm0-61.72h56.25v30.47H612.5v-30.47ZM668.75 883.24H700v62.5h-31.25zM550 822.3h31.25v31.25H550zM581.25 914.49h31.25v31.25h-31.25zM612.5 883.24h31.25v31.25H612.5zM643.75 1005.9v-28.91h25v-31.25H612.5v60.16h31.25zM456.25 884.02h31.25v59.38h-31.25zM518.75 1005.9v-31.25h30.47v31.25h31.25v-31.25H550V943.4h-62.5v62.5h31.25zM393.75 759.8h62.5v31.25h-62.5zM300 791.05h31.25v62.5H300z" fill="currentColor"></path><text x="50%" y="1233" fill="white" font-family="sans-serif" font-size="90" font-weight="600" text-anchor="middle">¡Escaneame!</text></symbol><symbol id="f-20" viewBox="0 0 1000 1100"><rect width="528.73" height="528.73" x="235.57" y="287.8" fill="#e5e7ef" rx="22.97" ry="22.97"></rect><path d="M147.91 719.14a9 9 0 0 1-9-9V220.96c0-16.44 12.3-29.82 27.42-29.82h432.89a9 9 0 0 1 0 18H166.33c-5.2 0-9.42 5.3-9.42 11.82v489.18a9 9 0 0 1-9 9ZM833.54 913.19h-432.9a9 9 0 0 1 0-18h432.89c5.2 0 9.42-5.3 9.42-11.82V394.19a9 9 0 0 1 18 0v489.18c0 16.44-12.3 29.82-27.42 29.82ZM312.42 871.55H194c-10.27 0-17.61-2.02-21.22-5.84-2.26-2.38-3.23-5.74-2.99-10.25.52-9.5 1.31-18.38 2.01-26.22 1.46-16.41 2.61-29.37.73-39.52-2.47-13.3-10.29-21.07-23.23-23.09-11.61-1.81-21.07 2.66-28.12 13.31-5.3 8-8.87 18.68-13.01 31.04-3.08 9.23-6.28 18.77-10.55 28.34-1.22 2.73-4.11 4.31-9.54 7.1-6.77 3.47-16.04 8.23-23.83 19.07a71.707 71.707 0 0 0-3.88 6.05H-.07v18h52.26c-4.74 13.12-6.78 24.61-6.91 25.38a8.991 8.991 0 0 0 7.33 10.4c4.9.84 9.55-2.43 10.41-7.32.05-.26 4.73-26.51 15.86-42 5.26-7.31 11.44-10.49 17.43-13.56 6.52-3.34 13.91-7.13 17.76-15.78 4.63-10.38 8.11-20.78 11.18-29.97 8.63-25.81 12.7-33.62 21.27-32.29 5.3.83 7.25 2.84 8.32 8.6 1.43 7.72.38 19.6-.96 34.63-.71 7.98-1.51 17.03-2.05 26.83-.52 9.45 2.21 17.61 7.89 23.6 7.2 7.61 18.74 11.46 34.29 11.46h118.42c6.88 0 11.68 5.21 11.68 12.68s-5.94 11.98-11.68 11.98h-71.84c-1.58-.26-3.19-.4-4.84-.4h-65.96c-16.53 0-29.99 13.45-29.99 29.99 0 11.04 6 20.7 14.91 25.91a29.833 29.833 0 0 0-4.69 16.07c0 10.3 5.22 19.4 13.15 24.8a29.785 29.785 0 0 0-5.43 17.18c0 4.17.86 8.15 2.41 11.77-64.08-.9-67.31-5.19-81.4-23.94-3.89-5.18-7.4-12.29-10.42-21.13-1.61-4.7-6.72-7.21-11.43-5.61-4.7 1.61-7.21 6.72-5.61 11.43 1.24 3.64 2.58 7.05 4 10.25H-.07v18h66.03c8.95 11.85 16.28 20.43 35.4 24.69 15.68 3.49 39.05 4.37 85.4 4.51.32 0 .64.02.97.02h48.01c16.53 0 29.99-13.45 29.99-29.99 0-8.16-3.28-15.57-8.6-20.99 5.31-5.41 8.6-12.82 8.6-20.99s-3.28-15.57-8.6-20.99c5.31-5.41 8.6-12.82 8.6-20.99 0-4.11-.83-8.02-2.33-11.59h49.03c16.37 0 29.68-13.45 29.68-29.98 0-17.49-12.76-30.68-29.68-30.68Zm-64.69 114.22c0 6.61-5.38 11.99-11.99 11.99h-55.73c-6.61 0-11.99-5.38-11.99-11.99s5.38-11.99 11.99-11.99h55.73c6.61 0 11.99 5.38 11.99 11.99Zm-11.99 53.96h-31.68c-5.9 0-11.46 0-16.73-.02-6.42-.21-11.59-5.49-11.59-11.97s5.38-11.99 11.99-11.99h48.01c6.61 0 11.99 5.38 11.99 11.99s-5.38 11.99-11.99 11.99Zm11.99-95.93c0 6.61-5.38 11.99-11.99 11.99h-65.96c-6.61 0-11.99-5.38-11.99-11.99s5.38-11.99 11.99-11.99h63.14c.84.26 1.72.4 2.64.4h3.18c5.16 1.34 8.99 6.02 8.99 11.59ZM1000.07 71.49h-66.03c-8.95-11.85-16.28-20.43-35.4-24.69-17.52-3.9-44.63-4.53-102.71-4.53h-31.68c-16.53 0-29.99 13.45-29.99 29.99 0 8.16 3.28 15.57 8.59 20.99-5.31 5.41-8.59 12.82-8.59 20.99s3.28 15.57 8.59 20.99c-5.31 5.41-8.59 12.82-8.59 20.99 0 4.11.83 8.02 2.33 11.59h-49.02c-16.37 0-29.68 13.45-29.68 29.98 0 17.49 12.76 30.68 29.68 30.68h118.42c10.27 0 17.61 2.02 21.22 5.84 2.26 2.38 3.23 5.73 2.99 10.24-.52 9.5-1.31 18.38-2.01 26.23-1.46 16.41-2.61 29.37-.73 39.52 2.47 13.3 10.29 21.07 23.23 23.09 1.68.26 3.31.39 4.89.39 9.39 0 17.19-4.6 23.22-13.71 5.3-8 8.87-18.68 13.01-31.04 3.08-9.23 6.28-18.77 10.55-28.34 1.22-2.73 4.11-4.31 9.54-7.1 6.77-3.47 16.04-8.23 23.83-19.07 1.38-1.92 2.67-3.95 3.88-6.05h60.44v-18h-52.26c4.74-13.12 6.78-24.61 6.91-25.38.85-4.9-2.43-9.55-7.33-10.4a9.002 9.002 0 0 0-10.41 7.32c-.05.26-4.73 26.51-15.86 42-5.26 7.31-11.44 10.49-17.43 13.56-6.52 3.34-13.91 7.13-17.76 15.78-4.63 10.38-8.11 20.78-11.18 29.97-8.63 25.81-12.69 33.63-21.27 32.29-5.3-.83-7.25-2.84-8.32-8.6-1.43-7.72-.38-19.6.96-34.63.71-7.98 1.52-17.03 2.05-26.83.52-9.45-2.21-17.61-7.89-23.61-7.2-7.61-18.74-11.46-34.29-11.46H687.55c-6.88 0-11.68-5.21-11.68-12.68s5.94-11.98 11.68-11.98h71.84c1.58.26 3.19.4 4.84.4 3.77 0 6.99-2.32 8.33-5.6.54-1.15.85-2.44.85-3.8a9 9 0 0 0-9-9h-3.18c-5.16-1.34-8.99-6.02-8.99-11.59 0-6.61 5.38-11.99 11.99-11.99a9 9 0 0 0 0-18c-6.61 0-11.99-5.38-11.99-11.99s5.38-11.99 11.99-11.99a9 9 0 0 0 0-18c-6.61 0-11.99-5.38-11.99-11.99s5.38-11.99 11.99-11.99h31.68c107.16 0 108.53 1.82 125.31 24.16 3.89 5.18 7.4 12.29 10.42 21.13 1.61 4.7 6.72 7.21 11.43 5.61 4.7-1.61 7.21-6.72 5.61-11.43-1.24-3.64-2.58-7.05-4-10.25h55.37v-18Z" fill="currentColor"></path><path d="M432.75 352.17H299.94v132.81h132.81V352.17ZM401.5 453.73h-70.31v-70.31h70.31v70.31Z" fill="currentColor"></path><path d="M350.71 402.95h31.25v31.25h-31.25zM699.93 352.17H567.12v132.81h132.81V352.17Zm-31.25 101.56h-70.31v-70.31h70.31v70.31Z" fill="currentColor"></path><path d="M617.9 402.95h31.25v31.25H617.9zM432.75 619.36H299.94v132.81h132.81V619.36ZM401.5 720.92h-70.31v-70.31h70.31v70.31Z" fill="currentColor"></path><path d="M350.71 670.14h31.25v31.25h-31.25zM331.18 506.07h31.25v31.25h-31.25zM392.9 568.57v31.25h31.25v-31.25h-30.47v-31.25h-31.25v31.25h30.47zM518.68 412.32h31.25v31.25h-31.25zM456.18 383.42h31.25v60.16h-31.25zM487.43 352.17h31.25v31.25h-31.25z" fill="currentColor"></path><path d="M518.68 443.57h-31.25v31.25h-31.25v31.25h62.5v-62.5zM487.43 599.82v30.47h31.25v30.47h62.5v-31.25h-62.5v-30.47h-31.25v-61.72h-31.25v62.5h31.25z" fill="currentColor"></path><path d="M518.68 506.07h31.25v62.5h-31.25zM612.43 599.04h87.5v-62.5h-31.25v-30.47h-57.03v31.25h-30.47v31.25h31.25v30.47Zm0-61.72h56.25v30.47h-56.25v-30.47ZM668.68 629.51h31.25v62.5h-31.25zM549.93 568.57h31.25v31.25h-31.25zM581.18 660.76h31.25v31.25h-31.25zM612.43 629.51h31.25v31.25h-31.25zM643.68 752.17v-28.91h25v-31.25h-56.25v60.16h31.25zM456.18 630.29h31.25v59.38h-31.25zM518.68 752.17v-31.25h30.47v31.25h31.25v-31.25h-30.47v-31.25h-62.5v62.5h31.25zM393.68 506.07h62.5v31.25h-62.5zM299.93 537.32h31.25v62.5h-31.25z" fill="currentColor"></path><text x="62%" y="1018" fill="currentColor" font-family="sans-serif" font-size="80" font-weight="600" text-anchor="middle">¡Escaneame!</text></symbol><symbol id="f-5" viewBox="0 0 1000 1300"><rect width="1000" height="1300" rx="40" style="fill: rgb(255, 255, 255);"></rect><rect width="780" height="780" x="110" y="110" rx="40" style="fill: rgb(229, 231, 239);"></rect><path d="M414 244H244v170h170Zm-40 130h-90v-90h90Z" fill="currentColor"></path><path d="M309 309h40v40h-40zM756 244H586v170h170Zm-40 130h-90v-90h90Z" fill="currentColor"></path><path d="M651 309h40v40h-40zM414 586H244v170h170Zm-40 130h-90v-90h90Z" fill="currentColor"></path><path d="M309 651h40v40h-40zM284 441h40v40h-40zM324 521h39v40h40v-40h-39v-40h-40v40zM524 321h40v40h-40zM444 284h40v77h-40zM484 244h40v40h-40zM524 361h-40v40h-40v40h80v-80zM524 599v-39h-40v-79h-40v80h40v39h40v39h80v-40h-80z" fill="currentColor"></path><path d="M524 441h40v80h-40zM644 560h112v-80h-40v-39h-73v40h-39v40h40Zm0-79h72v39h-72ZM716 599h40v80h-40zM564 521h40v40h-40zM604 639h40v40h-40zM644 599h40v40h-40zM644 756h40v-37h32v-40h-72v77zM444 600h40v76h-40zM524 756v-40h39v40h40v-40h-39v-40h-80v80h40zM364 441h80v40h-80zM244 481h40v80h-40z" fill="currentColor"></path><text x="50%" y="1108" fill="currentColor" font-family="sans-serif" font-size="100" font-weight="600" text-anchor="middle">¡Escaneame!</text></symbol><symbol id="f-2" viewBox="0 0 1000 1300"><rect width="1000" height="1300" rx="40" style="fill: rgb(255, 255, 255);"></rect><rect width="780" height="780" x="110" y="110" rx="40" style="fill: rgb(229, 231, 239);"></rect><path d="M960 0H40A40 40 0 0 0 0 40v920a40 40 0 0 0 40 40h920a40 40 0 0 0 40-40V40a40 40 0 0 0-40-40Zm0 960H40V40h920Z" fill="currentColor"></path><path d="M414 244H244v170h170Zm-40 130h-90v-90h90Z" fill="currentColor"></path><path d="M309 309h40v40h-40zM756 244H586v170h170Zm-40 130h-90v-90h90Z" fill="currentColor"></path><path d="M651 309h40v40h-40zM414 586H244v170h170Zm-40 130h-90v-90h90Z" fill="currentColor"></path><path d="M309 651h40v40h-40zM284 441h40v40h-40zM363 521v40h40v-40h-39v-40h-40v40h39zM524 321h40v40h-40zM444 284h40v77h-40zM484 244h40v40h-40zM524 361h-40v40h-40v40h80v-80zM484 561v39h40v39h80v-40h-80v-39h-40v-79h-40v80h40z" fill="currentColor"></path><path d="M524 441h40v80h-40zM644 560h112v-80h-40v-39h-73v40h-39v40h40Zm0-79h72v39h-72ZM716 599h40v80h-40zM564 521h40v40h-40zM604 639h40v40h-40zM644 599h40v40h-40zM684 756v-37h32v-40h-72v77h40zM444 600h40v76h-40zM524 756v-40h39v40h40v-40h-39v-40h-80v80h40zM364 441h80v40h-80zM244 481h40v80h-40zM748.5 1157.18q-7.41 0-11 4.58a16.87 16.87 0 0 0-3.14 7.62h26.54a17 17 0 0 0-2.8-8.15q-3.1-4.05-9.6-4.05ZM542.65 1157.18q-7.41 0-11 4.58a16.86 16.86 0 0 0-3.13 7.62h26.54a17.07 17.07 0 0 0-2.81-8.15c-2.04-2.7-5.25-4.05-9.6-4.05ZM419.3 1178.81a47.09 47.09 0 0 0-4.95 1.27 15.66 15.66 0 0 0-3.55 1.75 7.43 7.43 0 0 0-2.22 2.3 5.84 5.84 0 0 0-.78 3 6.26 6.26 0 0 0 1 3.53 6.82 6.82 0 0 0 2.93 2.42 11.22 11.22 0 0 0 4.77.9 15.47 15.47 0 0 0 7-1.45 13.9 13.9 0 0 0 4.63-3.55 12.38 12.38 0 0 0 2.32-4 15.66 15.66 0 0 0 1.08-5.27c.05-1.19.08-2.22.1-3.14l-5.63.91q-3.9.76-6.7 1.33Z" fill="currentColor"></path><path d="M960 1040H40a40 40 0 0 0-40 40v180a40 40 0 0 0 40 40h920a40 40 0 0 0 40-40v-180a40 40 0 0 0-40-40Z" fill="currentColor"></path><path d="M597.8 1178.81a46.46 46.46 0 0 0-4.95 1.27 15.66 15.66 0 0 0-3.55 1.75 7.59 7.59 0 0 0-2.23 2.3 5.93 5.93 0 0 0-.77 3 6.26 6.26 0 0 0 1 3.53 6.79 6.79 0 0 0 2.92 2.42 11.3 11.3 0 0 0 4.78.9 15.5 15.5 0 0 0 7-1.45 13.86 13.86 0 0 0 4.62-3.55 12.43 12.43 0 0 0 2.33-4 15.42 15.42 0 0 0 1.07-5.27c.05-1.19.09-2.22.11-3.14l-5.63.91c-2.6.52-4.84.95-6.7 1.33Z" fill="currentColor"></path><text x="50%" y="1202" fill="white" font-family="sans-serif" font-size="100" font-weight="600" text-anchor="middle">¡Escaneame!</text></symbol><symbol id="f-11" viewBox="0 0 1000 1300"><path d="M925.5 75v849.84H75.67V75H925.5m5-40H70.67c-19.33 0-35 15.67-35 35v859.84c0 19.33 15.67 35 35 35H930.5c19.33 0 35-15.67 35-35V70c0-19.33-15.67-35-35-35Z" fill="currentColor"></path><rect width="725.27" height="725.27" x="137.95" y="137.28" fill="#e5e7ef" rx="40" ry="40"></rect><rect width="931" height="217.16" x="34.5" y="1047.84" rx="35" ry="35" fill="currentColor"></rect><path d="m500.58 980.97-26.66 35.33-26.66 35.34H553.9l-26.66-35.34-26.66-35.33z" fill="currentColor"></path><path d="M414.58 243.92h-170v170h170v-170Zm-40 130h-90v-90h90v90Z" fill="currentColor"></path><path d="M309.58 308.92h40v40h-40zM756.58 243.92h-170v170h170v-170Zm-40 130h-90v-90h90v90Z" fill="currentColor"></path><path d="M651.58 308.92h40v40h-40zM414.58 585.92h-170v170h170v-170Zm-40 130h-90v-90h90v90Z" fill="currentColor"></path><path d="M309.58 650.92h40v40h-40zM284.58 440.92h40v40h-40zM363.58 520.92v40h40v-40h-39v-40h-40v40h39zM524.58 320.92h40v40h-40zM444.58 283.92h40v77h-40zM484.58 243.92h40v40h-40zM524.58 360.92h-40v40h-40v40h80v-80zM484.58 560.92v39h40v39h80v-40h-80v-39h-40v-79h-40v80h40z" fill="currentColor"></path><path d="M524.58 440.92h40v80h-40zM644.58 559.92h112v-80h-40v-39h-73v40h-39v40h40v39Zm0-79h72v39h-72v-39ZM716.58 598.92h40v80h-40zM564.58 520.92h40v40h-40zM604.58 638.92h40v40h-40zM644.58 598.92h40v40h-40zM684.58 755.92v-37h32v-40h-72v77h40zM444.58 599.92h40v76h-40zM524.58 755.92v-40h39v40h40v-40h-39v-40h-80v80h40zM364.58 440.92h80v40h-80zM244.58 480.92h40v80h-40z" fill="currentColor"></path><text x="50%" y="1190" fill="white" font-family="sans-serif" font-size="90" font-weight="600" text-anchor="middle">¡Escaneame!</text></symbol><symbol id="f-3" viewBox="0 0 1000 1300"><rect width="1000" height="1300" rx="40" style="fill: rgb(255, 255, 255);"></rect><rect width="780" height="780" x="110" y="110" rx="40" style="fill: rgb(229, 231, 239);"></rect><path d="M414 244H244v170h170Zm-40 130h-90v-90h90Z" fill="currentColor"></path><path d="M309 309h40v40h-40zM756 244H586v170h170Zm-40 130h-90v-90h90Z" fill="currentColor"></path><path d="M651 309h40v40h-40zM414 586H244v170h170Zm-40 130h-90v-90h90Z" fill="currentColor"></path><path d="M309 651h40v40h-40zM284 441h40v40h-40zM363 521v40h40v-40h-39v-40h-40v40h39zM524 321h40v40h-40zM444 284h40v77h-40zM484 244h40v40h-40zM524 361h-40v40h-40v40h80v-80zM484 561v39h40v39h80v-40h-80v-39h-40v-79h-40v80h40z" fill="currentColor"></path><path d="M524 441h40v80h-40zM644 560h112v-80h-40v-39h-73v40h-39v40h40Zm0-79h72v39h-72ZM716 599h40v80h-40zM564 521h40v40h-40zM604 639h40v40h-40zM644 599h40v40h-40zM684 756v-37h32v-40h-72v77h40zM444 600h40v76h-40zM524 756v-40h39v40h40v-40h-39v-40h-80v80h40zM364 441h80v40h-80zM244 481h40v80h-40z" fill="currentColor"></path><path d="M960 0H40A40 40 0 0 0 0 40v1220a40 40 0 0 0 40 40h920a40 40 0 0 0 40-40V40a40 40 0 0 0-40-40ZM960 960H40V40h920Z" fill="currentColor"></path><path d="M748.5 1114.18q-7.41 0-11 4.58a16.87 16.87 0 0 0-3.14 7.62h26.54a17 17 0 0 0-2.8-8.15q-3.1-4.05-9.6-4.05ZM542.65 1114.18q-7.41 0-11 4.58a16.86 16.86 0 0 0-3.13 7.62h26.54a17.07 17.07 0 0 0-2.81-8.15c-2.04-2.7-5.25-4.05-9.6-4.05ZM597.8 1135.81a46.46 46.46 0 0 0-4.95 1.27 15.66 15.66 0 0 0-3.55 1.75 7.59 7.59 0 0 0-2.23 2.3 5.93 5.93 0 0 0-.77 3 6.26 6.26 0 0 0 1 3.53 6.79 6.79 0 0 0 2.92 2.42 11.3 11.3 0 0 0 4.78.9 15.5 15.5 0 0 0 7-1.45 13.86 13.86 0 0 0 4.62-3.55 12.43 12.43 0 0 0 2.33-4 15.42 15.42 0 0 0 1.07-5.27c.05-1.19.09-2.22.11-3.14l-5.63.91c-2.6.52-4.84.95-6.7 1.33ZM419.3 1135.81a47.09 47.09 0 0 0-4.95 1.27 15.66 15.66 0 0 0-3.55 1.75 7.43 7.43 0 0 0-2.22 2.3 5.84 5.84 0 0 0-.78 3 6.26 6.26 0 0 0 1 3.53 6.82 6.82 0 0 0 2.93 2.42 11.22 11.22 0 0 0 4.77.9 15.47 15.47 0 0 0 7-1.45 13.9 13.9 0 0 0 4.63-3.55 12.38 12.38 0 0 0 2.32-4 15.66 15.66 0 0 0 1.08-5.27c.05-1.19.08-2.22.1-3.14l-5.63.91q-3.9.76-6.7 1.33Z" fill="currentColor"></path><text x="50%" y="1160" fill="white" font-family="sans-serif" font-size="100" font-weight="600" text-anchor="middle">¡Escaneame!</text></symbol><symbol id="f-4" viewBox="0 0 1000 1300"><rect width="1000" height="1300" rx="40" style="fill: rgb(255, 255, 255);"></rect><rect width="780" height="780" x="110" y="110" rx="40" style="fill: rgb(229, 231, 239);"></rect><path d="M960 0H40A40 40 0 0 0 0 40v1220a40 40 0 0 0 40 40h920a40 40 0 0 0 40-40V40a40 40 0 0 0-40-40Zm0 1260H40V40h920Z" fill="currentColor"></path><path d="M414 244H244v170h170Zm-40 130h-90v-90h90Z" fill="currentColor"></path><path d="M309 309h40v40h-40zM756 244H586v170h170Zm-40 130h-90v-90h90Z" fill="currentColor"></path><path d="M651 309h40v40h-40zM414 586H244v170h170Zm-40 130h-90v-90h90Z" fill="currentColor"></path><path d="M309 651h40v40h-40zM284 441h40v40h-40zM363 521v40h40v-40h-39v-40h-40v40h39zM524 321h40v40h-40zM444 284h40v77h-40zM484 244h40v40h-40zM524 361h-40v40h-40v40h80v-80zM484 561v39h40v39h80v-40h-80v-39h-40v-79h-40v80h40z" fill="currentColor"></path><path d="M524 441h40v80h-40zM644 560h112v-80h-40v-39h-73v40h-39v40h40Zm0-79h72v39h-72ZM716 599h40v80h-40zM564 521h40v40h-40zM604 639h40v40h-40zM644 599h40v40h-40zM684 756v-37h32v-40h-72v77h40zM444 600h40v76h-40zM524 756v-40h39v40h40v-40h-39v-40h-80v80h40zM364 441h80v40h-80zM244 481h40v80h-40z" fill="currentColor"></path><text x="50%" y="1108" fill="currentColor" font-family="sans-serif" font-size="100" font-weight="600" text-anchor="middle">¡Escaneame!</text></symbol><symbol id="f-1" viewBox="0 0 1000 1600"><rect width="1000" height="1600" rx="40" style="fill: rgb(255, 255, 255);"></rect><rect width="780" height="780" x="110" y="320" rx="40" style="fill: rgb(229, 231, 239);"></rect><path d="M414 454H244v170h170Zm-40 130h-90v-90h90Z" fill="currentColor"></path><path d="M309 519h40v40h-40zM756 454H586v170h170Zm-40 130h-90v-90h90Z" fill="currentColor"></path><path d="M651 519h40v40h-40zM414 796H244v170h170Zm-40 130h-90v-90h90Z" fill="currentColor"></path><path d="M309 861h40v40h-40zM284 651h40v40h-40zM324 731h39v40h40v-40h-39v-40h-40v40zM524 531h40v40h-40zM444 494h40v77h-40zM484 454h40v40h-40zM524 571h-40v40h-40v40h80v-80zM524 809v-39h-40v-79h-40v80h40v39h40v39h80v-40h-80z" fill="currentColor"></path><path d="M524 651h40v80h-40zM644 770h112v-80h-40v-39h-73v40h-39v40h40Zm0-79h72v39h-72ZM716 809h40v80h-40zM564 731h40v40h-40zM604 849h40v40h-40zM644 809h40v40h-40zM644 966h40v-37h32v-40h-72v77zM444 810h40v76h-40zM524 966v-40h39v40h40v-40h-39v-40h-80v80h40zM364 651h80v40h-80zM244 691h40v80h-40z" fill="currentColor"></path><path d="M960 0H40A40 40 0 0 0 0 40v1520a40 40 0 0 0 40 40h920a40 40 0 0 0 40-40V40a40 40 0 0 0-40-40ZM482 115h92a12 12 0 0 1 0 24h-92a12 12 0 0 1 0-24Zm-48-8a20 20 0 1 1-20 20 20 20 0 0 1 20-20Zm66 1449.5a77.5 77.5 0 1 1 77.5-77.5 77.5 77.5 0 0 1-77.5 77.5ZM960 1310a40 40 0 0 1-40 40H80a40 40 0 0 1-40-40V290a40 40 0 0 1 40-40h840a40 40 0 0 1 40 40Z" fill="currentColor"></path><path d="M500 1423a56 56 0 1056 56 56.06 56.06 0 00-56-56Zm0 104a48 48 0 1148-48 48.05 48.05 0 01-48 48Z" fill="currentColor"></path><text x="50%" y="1252" fill="currentColor" font-family="sans-serif" font-size="100" font-weight="600" text-anchor="middle">¡Escaneame!</text></symbol><symbol id="f-6" viewBox="0 0 1000 1300"><rect width="1000" height="1300" rx="40" style="fill: rgb(255, 255, 255);"></rect><rect width="780" height="780" x="110" y="110" rx="40" style="fill: rgb(229, 231, 239);"></rect><path d="M414 244H244v170h170Zm-40 130h-90v-90h90Z" fill="currentColor"></path><path d="M309 309h40v40h-40zM756 244H586v170h170Zm-40 130h-90v-90h90Z" fill="currentColor"></path><path d="M651 309h40v40h-40zM414 586H244v170h170Zm-40 130h-90v-90h90Z" fill="currentColor"></path><path d="M309 651h40v40h-40zM284 441h40v40h-40zM363 521v40h40v-40h-39v-40h-40v40h39zM524 321h40v40h-40zM444 284h40v77h-40zM484 244h40v40h-40zM524 361h-40v40h-40v40h80v-80zM484 561v39h40v39h80v-40h-80v-39h-40v-79h-40v80h40z" fill="currentColor"></path><path d="M524 441h40v80h-40zM644 560h112v-80h-40v-39h-73v40h-39v40h40Zm0-79h72v39h-72ZM716 599h40v80h-40zM564 521h40v40h-40zM604 639h40v40h-40zM644 599h40v40h-40zM684 756v-37h32v-40h-72v77h40zM444 600h40v76h-40zM524 756v-40h39v40h40v-40h-39v-40h-80v80h40zM364 441h80v40h-80zM244 481h40v80h-40zM542.65 1063.18q-7.41 0-11 4.58a16.86 16.86 0 0 0-3.13 7.62h26.54a17.07 17.07 0 0 0-2.81-8.15c-2.04-2.7-5.25-4.05-9.6-4.05ZM597.8 1084.81a46.46 46.46 0 0 0-4.95 1.27 15.66 15.66 0 0 0-3.55 1.75 7.59 7.59 0 0 0-2.23 2.3 5.93 5.93 0 0 0-.77 3 6.26 6.26 0 0 0 1 3.53 6.79 6.79 0 0 0 2.92 2.42 11.3 11.3 0 0 0 4.78.9 15.5 15.5 0 0 0 7-1.45 13.86 13.86 0 0 0 4.62-3.55 12.43 12.43 0 0 0 2.33-4 15.42 15.42 0 0 0 1.07-5.27c.05-1.19.09-2.22.11-3.14l-5.63.91c-2.6.52-4.84.95-6.7 1.33ZM748.5 1063.18q-7.41 0-11 4.58a16.87 16.87 0 0 0-3.14 7.62h26.54a17 17 0 0 0-2.8-8.15q-3.1-4.05-9.6-4.05ZM419.3 1084.81a47.09 47.09 0 0 0-4.95 1.27 15.66 15.66 0 0 0-3.55 1.75 7.43 7.43 0 0 0-2.22 2.3 5.84 5.84 0 0 0-.78 3 6.26 6.26 0 0 0 1 3.53 6.82 6.82 0 0 0 2.93 2.42 11.22 11.22 0 0 0 4.77.9 15.47 15.47 0 0 0 7-1.45 13.9 13.9 0 0 0 4.63-3.55 12.38 12.38 0 0 0 2.32-4 15.66 15.66 0 0 0 1.08-5.27c.05-1.19.08-2.22.1-3.14l-5.63.91q-3.9.76-6.7 1.33Z" fill="currentColor"></path><path d="M850 938H150a40 40 0 0 0-40 40v206a40 40 0 0 0 40 40h700a40 40 0 0 0 40-40V978a40 40 0 0 0-40-40Z" fill="currentColor"></path><path d="M0 0h1000v1300H0z" style="fill: none;"></path><text x="50%" y="1108" fill="white" font-family="sans-serif" font-size="100" font-weight="600" text-anchor="middle">¡Escaneame!</text></symbol></defs><use id="frame-18" href="#f-18" class="f" /><use id="frame-18-blue" href="#f-18" class="f blue" /><use id="frame-0" href="#f-0" class="f" /><use id="frame-0-blue" href="#f-0" class="f blue" /><use id="frame-22" href="#f-22" class="f" /><use id="frame-22-blue" href="#f-22" class="f blue" /><use id="frame-13" href="#f-13" class="f" /><use id="frame-13-blue" href="#f-13" class="f blue" /><use id="frame-30" href="#f-30" class="f" /><use id="frame-30-blue" href="#f-30" class="f blue" /><use id="frame-21" href="#f-21" class="f" /><use id="frame-21-blue" href="#f-21" class="f blue" /><use id="frame-29" href="#f-29" class="f" /><use id="frame-29-blue" href="#f-29" class="f blue" /><use id="frame-28" href="#f-28" class="f" /><use id="frame-28-blue" href="#f-28" class="f blue" /><use id="frame-20" href="#f-20" class="f" /><use id="frame-20-blue" href="#f-20" class="f blue" /><use id="frame-5" href="#f-5" class="f" /><use id="frame-5-blue" href="#f-5" class="f blue" /><use id="frame-2" href="#f-2" class="f" /><use id="frame-2-blue" href="#f-2" class="f blue" /><use id="frame-11" href="#f-11" class="f" /><use id="frame-11-blue" href="#f-11" class="f blue" /><use id="frame-3" href="#f-3" class="f" /><use id="frame-3-blue" href="#f-3" class="f blue" /><use id="frame-4" href="#f-4" class="f" /><use id="frame-4-blue" href="#f-4" class="f blue" /><use id="frame-1" href="#f-1" class="f" /><use id="frame-1-blue" href="#f-1" class="f blue" /><use id="frame-6" href="#f-6" class="f" /><use id="frame-6-blue" href="#f-6" class="f blue" /></svg>